<?xml version="1.0" standalone="no"?>
<!DOCTYPE svg PUBLIC "-//W3C//DTD SVG 20010904//EN"
 "http://www.w3.org/TR/2001/REC-SVG-20010904/DTD/svg10.dtd">
<svg version="1.0" xmlns="http://www.w3.org/2000/svg"
 width="256.000000pt" height="256.000000pt" viewBox="0 0 256.000000 256.000000"
 preserveAspectRatio="xMidYMid meet">

<g transform="translate(0.000000,256.000000) scale(0.100000,-0.100000)" stroke="none">
<path d="M1150 2524 c-452 -57 -818 -312 -1017 -709 -114 -225 -157 -498 -119
-753 69 -464 396 -864 834 -1018 48 -17 55 -17 80 -4 l27 16 3 135 3 135 -118
1 c-190 1 -245 31 -319 174 -45 87 -69 118 -148 185 -42 37 -45 51 -11 60 71
18 155 -32 235 -138 90 -119 189 -154 313 -110 46 16 50 21 67 70 9 30 27 67
39 82 27 37 26 40 -3 40 -101 0 -290 74 -374 145 -112 97 -172 251 -174 451
-2 146 22 230 95 331 29 41 29 43 17 94 -15 61 -8 185 13 244 12 34 19 40 46
43 44 5 119 -21 230 -79 l94 -49 81 17 c112 24 360 24 474 0 l82 -18 61 36
c100 58 178 88 239 89 l55 1 17 -65 c20 -77 22 -164 7 -226 -11 -43 -10 -47
18 -87 73 -102 97 -185 95 -333 -1 -119 -12 -171 -54 -279 -43 -108 -118 -185
-238 -243 -79 -38 -199 -72 -256 -72 -30 0 -30 -1 1 -46 41 -61 47 -99 54
-347 6 -221 7 -240 25 -253 29 -21 48 -18 144 22 395 163 682 513 769 936 24
116 24 382 0 495 -108 509 -490 896 -992 1004 -88 19 -320 32 -395 23z"/>
</g>
</svg>
