<?xml version="1.0" encoding="UTF-8"?>
<svg enable-background="new 0 0 898 980" version="1.1" viewBox="0 0 898 980" xml:space="preserve" xmlns="http://www.w3.org/2000/svg">
<path d="m757.33 981c-1.3801-1.7945-2.989-3.4727-3.3881-5.4012-4.7522-22.959-9.4524-45.93-13.91-68.948-5.2297-27.004-4.9211-54.325-4.3558-81.666 0.75775-36.65 8.0981-72.36 14.802-108.19 4.6484-24.844 9.1795-49.73 12.833-74.733 2.6094-17.859 1.4064-35.704-7.4509-52.034-7.0671-13.029-17.367-23.301-28.939-32.283-0.49963 0.14661-0.99933 0.29321-1.499 0.43982 0 2.9869-0.53998 6.0935 0.091247 8.9405 3.1283 14.11 6.5679 28.15 9.8894 42.217 0.22327 0.94525 0.37732 1.9069 0.78094 3.9746-31.901 0.12122-62.948-2.2072-93.23-12.025 7.4921-17.76 14.814-35.117 22.829-54.116 18.479 2.0781 38.489 4.3284 58.395 6.5669 0.04895-8.9764-1.795-11.632-11.398-12.929-11.212-1.5145-22.495-2.6564-33.784-3.4106-12.018-0.80298-22.265-5.6588-31.126-13.239-12.9-11.035-25.366-22.581-37.85-34.09-1.103-1.0168-1.7216-3.5612-1.3196-5.0627 12.623-47.152 13.724-95.219 9.9618-143.37-3.2281-41.315-15.48-79.888-41.883-112.88-17.027-21.274-38.685-36.319-63.619-46.916-2.108-0.896-4.7194-1.2055-4.3416-4.9305 3.5162-34.669 10.463-68.319 27.735-99.163 18.345-32.76 46.104-53.462 81.46-64.861 18.469-5.9542 37.302-9.7426 56.811-11.508 15.86-0.38484 31.548-0.38484 47.895 4.01e-4 15.019 2.136 29.56 2.9809 43.708 5.7974 55.528 11.054 95.093 41.602 114.73 95.871 9.2936 25.689 14.478 52.149 15.903 79.412 1.6033 30.662 2.1481 61.358-2.5482 91.752-5.4499 35.271-15.908 69.261-29.71 102.16-18.405 43.874-42.087 84.525-74.916 119.33-17.919 18.996-37.324 36.129-62.504 45.183-0.87421 0.31433-1.6315 0.95368-3.1046 1.8389 3.4106 2.0939 6.4871 3.6994 9.255 5.7264 24.262 17.767 42.529 39.144 41.744 71.478-0.36743 15.13 0.12335 30.459-2.195 45.321-3.4011 21.803-8.9562 43.271-13.625 64.875-5.3094 24.569-10.279 49.184-11.466 74.391-2.1763 46.223 3.7545 91.684 12.422 136.94 1.9944 10.413 2.7054 21.078 3.8541 31.644 0.42633 3.9213-1.017 6.9301-5.2663 7.8994h-1.6667z" class="thirty-ballon"/>
<path d="m463.4 981c-4.0972-3.3376-5.3474-7.7266-5.3089-12.453 0.23062-28.305-0.16336-56.643 1.1826-84.897 0.60971-12.799 4.8397-25.412 7.2486-38.143 3.6692-19.391 6.2426-38.879 1.4061-58.437-4.631-18.727-14.562-34.122-30.139-45.69-1.8081-1.3427-3.8645-2.351-6.7976-4.1088 0.68863 19.927 7.1861 37.566 11.468 55.829-6.6626 0-13.002 0.65088-19.165-0.11768-21.598-2.6935-43.135-5.8754-64.694-8.8769-0.49365-0.068726-0.98785-0.16589-1.4669-0.30218-8.6179-2.4515-8.6566-2.7968-4.9805-11.054 6.8099-15.295 13.434-30.673 20.233-46.239 18.399 4.1264 38.345 1.2404 57.223 9.1519v-13.305c3.7072 2.074 6.8163 3.5298 9.626 5.4287 32.302 21.833 46.936 52.421 43.079 91.028-2.0122 20.139-6.6369 40.005-9.4933 60.078-1.5658 11.003-2.443 22.169-2.6845 33.281-0.42337 19.481 0.015137 38.98-0.25217 58.467-0.044097 3.2156-1.8444 6.4072-2.8588 9.9849-1.0923 0.37488-2.159 0.37488-3.6256 0.37488z" class="second-ballon"/>
<path d="m585.96 514.89c-13.942 42.978-32.681 83.216-57.901 120.32-16.672 24.53-35.6 47.2-59.348 65.072-10.89 8.1956-23.694 13.89-35.818 20.366-2.0746 1.108-5.1264 0.74622-7.6825 0.5329-14.273-1.1913-28.522-2.6793-42.804-3.7392-3.0889-0.22925-6.2773 0.88049-9.3894 1.3688-2.0178-1.9291-4.1938-4.9437-7.1277-6.6711-32.154-18.931-55.117-46.919-75.607-77.137-36.009-53.103-60.038-111.27-71.75-174.41-5.5045-29.676-5.5454-59.647-4.0748-89.66 1.3316-27.178 4.4866-54.049 13.411-79.965 10.403-30.212 26.148-56.714 52.262-76.145 22.972-17.094 49.154-26.398 77.097-30.573 33.462-4.9998 67.145-4.8703 100.62-0.1468 34.393 4.8525 66.103 16.447 91.998 40.771 22.019 20.684 34.977 46.608 43.091 75.242 10.244 36.145 11.897 73.12 10.691 110.41-1.1472 35.482-6.3484 70.218-17.671 104.35z" class="second-ballon"/>
<path d="m246 650.04c-6.1842-9.8638-13.604-18.134-22.721-24.794-4.2314-3.0913-6.6189-6.94-6.1913-12.28 0.30391-3.7951-1.812-5.5432-5.2119-5.9739-7.757-0.9826-15.547-2.7368-23.293-2.5866-26.047 0.50507-46.002-11.745-64.352-28.544-25.352-23.209-45.068-50.708-62.199-80.19-27.632-47.552-47.129-98.23-56.307-152.55-2.4025-14.22-3.19-28.809-3.5491-43.257-0.69551-27.983-0.74201-56.015 3.8419-83.76 5.3117-32.15 14.607-62.836 34.859-89.159 21.762-28.285 51.255-44.102 85.176-53.028 30.581-8.0473 61.63-7.5807 92.815-6.3804 26.683 1.027 52.391 5.9718 77.197 16.174 36.245 14.908 60.124 41.752 76.037 76.654 0.54508 1.1956 0.89432 2.4804 1.66 4.6412-7.5605 1.3733-14.803 2.6628-22.035 4.007-33.835 6.289-65.425 17.712-91.994 40.489-26.729 22.914-42.381 52.561-51.64 85.935-10.673 38.468-12.733 77.734-10.256 117.38 3.0083 48.155 12.597 94.897 30.139 139.9 4.7615 12.215 10.019 24.242 15.293 36.248 1.8686 4.2543 1.0349 6.6631-3.253 8.5152-6.8342 2.952-13.5 6.2947-21.114 9.8859 2.9131 2.1927 5.8094 4.7208 9.026 6.7378 22.118 13.869 35.197 33.99 40.675 59.178 3.2314 14.858 2.48 29.987-0.21906 44.74-5.7438 31.395-12.266 62.65-18.666 93.923-5.8953 28.808-8.1871 57.982-9.8163 87.271-0.79392 14.273-2.4905 28.498-3.9588 42.726-0.1963 1.9024-1.4557 3.6951-2.2227 5.5387-0.60403-0.012756-1.2081-0.025513-1.8121-0.038269-0.62445-2.4004-1.6239-4.7712-1.8161-7.2058-2.3036-29.172-2.0579-58.398 2.5847-87.246 6.87-42.689 15.211-85.14 22.661-127.74 2.9958-17.13 4.6101-34.534 0.58872-51.628-1.8989-8.072-6.4212-15.527-9.9256-23.582z" class="first-ballon"/>
<path d="m154.19 626.15c1.5412-4.4327 2.9539-8.498 4.6035-13.245 11.099 0.84247 22.701 1.4445 34.229 2.7059 6.561 0.71777 13.025 2.4204 19.492 3.8581 3.85 0.85571 5.5387 3.6517 6.333 7.4211 3.4521 16.382 7.0657 32.731 10.615 49.093 0.16982 0.78271 0.2883 1.5765 0.5021 2.7609-31.473 0.27319-62.26-2.1486-92.826-12.073 5.7538-13.653 11.338-26.903 17.05-40.521z" fill="#020202" class="first-ballon"/>
</svg>
