<?xml version="1.0" encoding="UTF-8"?>
<svg enable-background="new 0 0 800 800" version="1.1" viewBox="0 0 800 800" xml:space="preserve" xmlns="http://www.w3.org/2000/svg">
<path d="m526.93 507.12c2.5954 5.0731 4.9046 9.8798 7.4629 14.55 1.6066 2.9329 1.1923 4.6891-1.8488 6.4243-41.797 23.847-85.766 42.559-131.41 57.826-52.029 17.403-105.21 30.078-158.66 41.963-4.576 1.0176-6.7264-0.17786-8.4418-4.2316-3.0223-7.1423-2.4265-14.315-0.89653-21.575 5.5898-26.526 12.062-52.84 18.804-79.095 1.2767-4.9718 3.9152-6.5742 8.4837-7.2275 33.966-4.8575 67.445-12.102 100.59-20.909 43.497-11.556 86.093-25.798 127.73-42.897 1.5398-0.63238 3.1714-1.0807 4.6339-1.8538 2.9542-1.5615 4.4739-0.39819 5.8423 2.3279 9.1129 18.156 18.336 36.256 27.704 54.698z"/>
<path d="m349.15 370.04c30.437-6.4244 59.827-14.94 88.431-26.065 3.6974-1.438 5.5854-0.94754 7.4305 2.6896 12.733 25.1 25.583 50.142 38.587 75.103 2.0237 3.8847 1.1103 5.4215-2.7002 6.9562-51.349 20.68-103.9 37.57-157.72 50.554-18.763 4.5269-37.614 8.6371-56.542 12.4-1.4579 0.28986-2.8924 0.84152-4.45 0.2005-1.272-1.7774-0.23904-3.4655 0.2662-5.1696 10.368-34.968 22.11-69.472 34.844-103.65 1.3592-3.6476 3.2858-5.0486 7.1672-5.5075 14.867-1.758 29.618-4.3376 44.683-7.514z"/>
<path d="m398.56 672.81c-47.476 2.8553-93.046-2.41-136.09-23.813 1.508-2.8733 4.0176-2.5241 5.9046-2.9091 30.5-6.222 60.83-13.179 90.857-21.377 63.847-17.431 125.45-40.538 183.08-73.456 3.9933-2.2808 5.9751-1.9444 7.9609 2.3333 5.2585 11.327 11.015 22.423 16.328 33.726 5.9231 12.6 4.2585 21.764-5.7747 31.615-11.521 11.312-25.785 18.26-40.512 24.155-31.637 12.663-64.379 21.492-98.007 26.952-7.7059 1.2511-15.523 1.8184-23.749 2.7743z"/>
<path d="m409.57 230.58c-4.2104 4.0609-8.0133 8.0503-12.137 11.674-2.7196 2.39-3.0191 4.4919-1.3726 7.73 11.02 21.673 21.836 43.45 32.766 65.169 3.2457 6.4497 3.3297 6.4505-3.5479 8.971-36.505 13.378-73.872 23.481-112.32 29.448-0.78375 0.12164-1.5925 0.082397-2.2522 0.11203-1.6209-1.8886-0.37671-3.4077 0.20172-4.8318 11.658-28.702 24.196-57.015 37.718-84.889 2.0343-4.1936 3.9587-8.4442 6.118-12.572 1.3703-2.6197 0.67899-4.1141-1.6705-5.7727-8.502-6.002-17.353-11.122-27.675-13.39-4.3909-0.96489-8.6674-2.5269-12.318-5.2833-3.8645-2.9181-6.9784-6.3946-5.9508-11.754 0.95544-4.9832 5.1596-8.5832 11.043-9.4398 6.8159-0.99239 13.208 0.82344 19.435 3.3969 1.6388 0.67725 3.2717 1.3685 5.8814 2.461-4.6887-7.3398-9.7431-13.037-14.689-18.816-2.5132-2.9366-4.8445-5.9547-5.0827-10.048-0.37024-6.3623 3.2495-9.7509 9.5338-8.9059 3.3052 0.44441 5.8596 2.1798 8.103 4.548 6.6686 7.0395 12.216 14.954 17.914 22.755 0.93778 1.284 1.4004 3.0609 3.7415 3.7526 0.91931-6.3033 1.6311-12.508 2.7539-18.636 3.5202-19.216 9.8373-37.294 21.815-53.074 2.8126-3.7054 6.1602-5.3866 10.751-4.6969 5.3911 0.80992 8.215 4.4469 7.4325 9.7975-0.56061 3.8332-1.9356 7.4341-3.8153 10.78-9.988 17.777-16.396 36.61-17.2 57.723 4.7368-8.9529 9.1188-17.499 13.755-25.905 3.0539-5.5366 6.268-11.01 9.7978-16.251 2.7083-4.0212 5.9757-7.702 11.458-7.9353 4.7968-0.20412 7.071 1.8623 7.5691 6.5907 0.52426 4.9775-1.4325 9.1408-4.0811 13.063-6.3499 9.403-11.941 19.243-17.091 29.34-0.95169 1.8661-1.7278 3.8218-1.8723 6.3041 3.5767-2.8619 7.1104-5.7797 10.741-8.5713 4.2611-3.2762 8.8725-5.9289 14.214-7.0147 4.3399-0.88214 8.5911-0.63643 10.91 3.7285 2.2847 4.3008-0.16629 8.0332-3.2778 10.562-4.7584 3.8668-10.158 6.9341-15.157 10.519-4.0552 2.9084-7.9219 6.0797-12.143 9.3613z"/>
</svg>
