<?xml version="1.0" encoding="UTF-8"?>
<svg enable-background="new 0 0 256 256" version="1.1" viewBox="0 0 256 256" xml:space="preserve" xmlns="http://www.w3.org/2000/svg">
<path d="m215.75 169.75c-5.5406 8.2017-12.926 10.037-22.225 9.5132-8.3118-0.46863-14.904-3.1236-20.598-8.8277-10.59-10.609-21.178-21.221-31.798-31.8-6.3841-6.3593-14.933-6.3044-21.371 0.11533-10.615 10.585-21.194 21.205-31.805 31.793-5.562 5.5497-11.948 8.9333-20.159 8.5429-4.7374-0.22531-9.5147 0.51201-14.278 0.59523-0.93386 0.016312-2.0606-0.80487-2.8022-1.539-9.1142-9.0216-18.78-17.58-27.096-27.291-10.889-12.715-10.525-32.397 1.0262-44.88 7.9126-8.5508 16.438-16.534 24.666-24.795 1.846-1.8534 3.255-3.2722 6.6246-2.4194 3.9142 0.99064 8.2822 0.44595 12.431 0.19607 7.6448-0.46044 13.716 2.749 18.908 7.8671 10.913 10.757 21.681 21.66 32.534 32.477 6.4265 6.405 14.951 6.412 21.371 0.015564 10.501-10.463 21.007-20.921 31.436-31.455 5.9483-6.0081 12.744-9.6181 21.5-8.9151 3.4591 0.27772 6.9729-0.19174 10.453-0.0672 1.0851 0.038833 2.3851 0.66179 3.1718 1.4379 8.8921 8.7731 18.133 17.246 26.422 26.563 9.216 10.36 11.376 26.992 3.3483 38.712-6.0057 8.7673-14.257 15.996-21.758 24.16z" fill="#00BDAE"/>
<path d="m148.24 236.32c-14.341 9.3377-33.766 6.7452-45.431-5.8083-12.128-13.051-25.106-25.311-37.702-37.928-1.1222-1.124-2.1676-2.3247-3.6864-3.9614 5.3927-0.57764 10.055-0.89266 14.654-1.6139 6.5194-1.0225 11.836-4.5015 16.432-9.0523 10.774-10.667 21.46-21.423 32.192-32.133 4.173-4.1644 7.4754-4.1191 11.747 0.14325 8.6092 8.5912 17.418 16.995 25.757 25.841 9.3271 9.8934 19.37 17.848 35.309 15.944-1.7198 1.8399-2.5377 2.7674-3.4101 3.6404-13.898 13.907-27.792 27.817-41.724 41.689-1.1449 1.14-2.5574 2.0114-4.1368 3.2389z" fill="#00BDAE"/>
<path d="m65.451 69.999c-1.1006-0.028885-1.7715-0.01281-2.4263-0.10768-0.26368-0.038201-0.49214-0.31952-1.1625-0.7875 0.93029-1.0916 1.7654-2.2174 2.745-3.1991 13.765-13.794 27.523-27.594 41.337-41.338 9.4358-9.3878 28.355-11.545 39.64-4.3875 3.4333 2.1777 6.7072 4.7527 9.6068 7.6011 13.896 13.65 27.638 27.457 41.852 41.624-4.5134 0.5722-8.4659 1.0612-12.415 1.5767-6.503 0.84876-11.497 4.5906-15.952 8.9326-10.852 10.579-21.481 21.386-32.207 32.095-4.4145 4.4076-7.5842 4.3656-12.104-0.15028-10.015-10.006-20.103-19.941-30.01-30.052-7.859-8.021-16.993-12.656-28.904-11.807z" fill="#00BDAE"/>
</svg>
